<svg viewBox="0 0 118 118" fill="none" xmlns="http://www.w3.org/2000/svg">
<path d="M64.1958 20.7082C65.3932 17.023 70.6068 17.023 71.8042 20.7082L78.3276 40.7852C78.8631 42.4333 80.399 43.5491 82.1319 43.5491H103.242C107.117 43.5491 108.728 48.5076 105.593 50.7852L88.5147 63.1935C87.1128 64.2121 86.5261 66.0175 87.0616 67.6656L93.585 87.7427C94.7825 91.4279 90.5645 94.4924 87.4297 92.2148L70.3511 79.8065C68.9492 78.7879 67.0508 78.7879 65.6489 79.8065L48.5703 92.2148C45.4355 94.4924 41.2176 91.4279 42.415 87.7426L48.9384 67.6656C49.4739 66.0175 48.8872 64.2121 47.4853 63.1935L30.4068 50.7852C27.2719 48.5076 28.883 43.5491 32.7579 43.5491H53.8681C55.601 43.5491 57.1369 42.4333 57.6724 40.7852L64.1958 20.7082Z" fill="#693D71"/>
<path d="M55.1958 29.7082C56.3932 26.023 61.6068 26.023 62.8042 29.7082L69.3276 49.7852C69.8631 51.4333 71.399 52.5491 73.1319 52.5491H94.2421C98.117 52.5491 99.7281 57.5076 96.5932 59.7852L79.5147 72.1935C78.1128 73.2121 77.5261 75.0175 78.0616 76.6656L84.585 96.7427C85.7825 100.428 81.5645 103.492 78.4297 101.215L61.3511 88.8065C59.9492 87.7879 58.0508 87.7879 56.6489 88.8065L39.5703 101.215C36.4355 103.492 32.2176 100.428 33.415 96.7426L39.9384 76.6656C40.4739 75.0175 39.8872 73.2121 38.4853 72.1935L21.4068 59.7852C18.2719 57.5076 19.883 52.5491 23.7579 52.5491H44.8681C46.601 52.5491 48.1369 51.4333 48.6724 49.7852L55.1958 29.7082Z" fill="#9268A0"/>
</svg>

